<?xml version="1.0" encoding="UTF-8" standalone="no"?>
<!-- Created with Inkscape (http://www.inkscape.org/) -->

<svg
   width="250"
   height="160"
   viewBox="0 0 250 160"
   version="1.1"
   id="SVGRoot"
   sodipodi:docname="01_logomarca_vertical.svg"
   inkscape:version="1.2.1 (9c6d41e410, 2022-07-14)"
   inkscape:export-filename="01_logomarca_vertical.svg"
   inkscape:export-xdpi="300"
   inkscape:export-ydpi="300"
   xmlns:inkscape="http://www.inkscape.org/namespaces/inkscape"
   xmlns:sodipodi="http://sodipodi.sourceforge.net/DTD/sodipodi-0.dtd"
   xmlns="http://www.w3.org/2000/svg"
   xmlns:svg="http://www.w3.org/2000/svg">
  <sodipodi:namedview
     id="namedview41"
     pagecolor="#ffffff"
     bordercolor="#000000"
     borderopacity="0.25"
     inkscape:showpageshadow="2"
     inkscape:pageopacity="0.0"
     inkscape:pagecheckerboard="0"
     inkscape:deskcolor="#d1d1d1"
     inkscape:document-units="px"
     showgrid="false"
     inkscape:zoom="4.2173091"
     inkscape:cx="106.46599"
     inkscape:cy="73.980823"
     inkscape:window-width="1920"
     inkscape:window-height="1011"
     inkscape:window-x="0"
     inkscape:window-y="32"
     inkscape:window-maximized="1"
     inkscape:current-layer="layer1" />
  <defs
     id="defs36" />
  <g
     inkscape:label="Camada 1"
     inkscape:groupmode="layer"
     id="layer1">
    <path
       id="path145"
       style="fill:#303030;fill-opacity:1;fill-rule:nonzero;stroke:none;stroke-width:0.655556"
       d="m 125,6.9023438 c -22.77956,0 -41.246094,18.9680112 -41.246094,42.3671872 0,23.399179 34.744954,56.818359 41.246094,56.818359 0.34346,0 0.77013,-0.0973 1.26172,-0.27734 8.81996,-3.2297 39.98437,-34.378307 39.98437,-56.541019 0,-19.415376 -12.71419,-35.779413 -30.05664,-40.7890622 C 132.6307,7.452627 128.87831,6.9023437 125,6.9023438 Z m 0,8.5781252 c 18.05334,0 32.68945,14.533597 32.68945,32.460937 0,1.748516 -0.14406,3.463108 -0.41211,5.136719 0.0424,0.05383 0.0821,0.111049 0.11914,0.169922 0.16295,0.257127 0.28434,0.539409 0.36524,0.845703 0.0809,0.306293 0.12109,0.60223 0.12109,0.892578 0,0.869048 -0.19437,1.51435 -0.58593,1.933594 -0.24717,0.265458 -0.59365,0.445888 -1.03907,0.542969 C 152.15965,70.743464 139.71629,80.402344 125,80.402344 c -14.75223,0 -27.219832,-9.706397 -31.287109,-23.03711 -0.43142,-0.09854 -0.769551,-0.277423 -1.011719,-0.537109 -0.390357,-0.419244 -0.583984,-1.062591 -0.583984,-1.931641 -10e-7,-0.290347 0.03962,-0.588238 0.121093,-0.894531 0.08087,-0.306294 0.202891,-0.587912 0.365235,-0.845703 0.03307,-0.05238 0.06815,-0.103889 0.105468,-0.152344 -0.260274,-1.64993 -0.398437,-3.34003 -0.398437,-5.0625 0,-17.927339 14.636103,-32.460937 32.689453,-32.460937 z" />
    <path
       d="M 0,0 C 1.238,0 2.53,0.121 3.876,0.362 5.222,0.605 6.218,0.941 6.864,1.373 V 2.1 c 0,0.214 0.013,0.43 0.041,0.646 0.027,0.215 0.04,0.403 0.04,0.566 C 6.891,5.249 6.729,7.066 6.46,8.763 6.191,10.458 5.734,11.938 5.088,13.204 4.441,14.469 3.566,15.466 2.463,16.191 1.359,16.919 0,17.282 -1.615,17.282 c -1.292,0 -2.423,-0.269 -3.392,-0.807 -0.969,-0.539 -1.75,-1.24 -2.342,-2.1 C -7.942,13.513 -8.386,12.57 -8.681,11.548 -8.978,10.525 -9.125,9.529 -9.125,8.561 -9.125,5.652 -8.413,3.499 -6.985,2.1 -5.56,0.699 -3.23,0 0,0 M 5.896,-7.834 C 4.765,-8.372 3.513,-8.763 2.14,-9.004 0.768,-9.247 -0.404,-9.368 -1.373,-9.368 c -3.5,0 -6.488,0.417 -8.964,1.252 -2.477,0.834 -4.51,2.018 -6.097,3.554 -1.589,1.534 -2.76,3.377 -3.513,5.531 -0.755,2.152 -1.131,4.522 -1.131,7.107 0,2.153 0.364,4.362 1.09,6.621 0.727,2.262 1.87,4.322 3.433,6.18 1.56,1.856 3.539,3.391 5.935,4.602 2.395,1.211 5.29,1.817 8.682,1.817 6.945,0 12.18,-2.14 15.707,-6.419 3.526,-4.282 5.29,-10.433 5.29,-18.454 0,-5.277 -0.686,-9.933 -2.059,-13.972 -1.373,-4.038 -3.5,-7.429 -6.38,-10.175 -2.881,-2.746 -6.556,-4.833 -11.024,-6.258 -4.469,-1.428 -9.771,-2.167 -15.909,-2.221 -0.054,1.722 -0.135,3.391 -0.242,5.006 -0.109,1.615 -0.216,3.284 -0.323,5.008 3.068,0.052 5.841,0.282 8.318,0.685 2.476,0.405 4.656,1.077 6.541,2.021 1.884,0.94 3.485,2.192 4.805,3.754 1.319,1.561 2.355,3.526 3.11,5.895"
       style="fill:#ffdd00;fill-opacity:1;fill-rule:nonzero;stroke:none"
       id="path153"
       transform="matrix(0.63910873,0,0,-0.58923718,52.776521,129.9821)" />
    <path
       d="M 0,0 C 1.238,0 2.53,0.121 3.876,0.362 5.222,0.605 6.218,0.941 6.864,1.373 V 2.1 c 0,0.214 0.013,0.43 0.041,0.646 0.027,0.215 0.04,0.403 0.04,0.566 C 6.891,5.249 6.729,7.066 6.46,8.763 6.191,10.458 5.734,11.938 5.088,13.204 4.441,14.469 3.566,15.466 2.463,16.191 1.359,16.919 0,17.282 -1.615,17.282 c -1.292,0 -2.423,-0.269 -3.392,-0.807 -0.969,-0.539 -1.75,-1.24 -2.342,-2.1 C -7.942,13.513 -8.386,12.57 -8.681,11.548 -8.978,10.525 -9.125,9.529 -9.125,8.561 -9.125,5.652 -8.413,3.499 -6.985,2.1 -5.56,0.699 -3.23,0 0,0 M 5.896,-7.834 C 4.765,-8.372 3.513,-8.763 2.14,-9.004 0.768,-9.247 -0.404,-9.368 -1.373,-9.368 c -3.5,0 -6.488,0.417 -8.964,1.252 -2.477,0.834 -4.51,2.018 -6.097,3.554 -1.589,1.534 -2.76,3.377 -3.513,5.531 -0.755,2.152 -1.131,4.522 -1.131,7.107 0,2.153 0.364,4.362 1.09,6.621 0.727,2.262 1.87,4.322 3.433,6.18 1.56,1.856 3.539,3.391 5.935,4.602 2.395,1.211 5.29,1.817 8.682,1.817 6.945,0 12.18,-2.14 15.707,-6.419 3.526,-4.282 5.29,-10.433 5.29,-18.454 0,-5.277 -0.686,-9.933 -2.059,-13.972 -1.373,-4.038 -3.5,-7.429 -6.38,-10.175 -2.881,-2.746 -6.556,-4.833 -11.024,-6.258 -4.469,-1.428 -9.771,-2.167 -15.909,-2.221 -0.054,1.722 -0.135,3.391 -0.242,5.006 -0.109,1.615 -0.216,3.284 -0.323,5.008 3.068,0.052 5.841,0.282 8.318,0.685 2.476,0.405 4.656,1.077 6.541,2.021 1.884,0.94 3.485,2.192 4.805,3.754 1.319,1.561 2.355,3.526 3.11,5.895"
       style="fill:#ffdd00;fill-opacity:1;fill-rule:nonzero;stroke:none"
       id="path157"
       transform="matrix(0.63910873,0,0,-0.58923718,82.092502,129.9821)" />
    <path
       d="M 0,0 C -0.931,0 -1.846,-0.028 -2.748,-0.081 -3.65,-0.137 -4.43,-0.191 -5.086,-0.246 v -16.405 h 4.02 c 4.429,0 7.763,0.601 10.007,1.805 2.241,1.202 3.363,3.445 3.363,6.726 0,1.585 -0.288,2.897 -0.862,3.937 -0.574,1.038 -1.394,1.872 -2.461,2.501 C 7.915,-1.054 6.616,-0.614 5.085,-0.369 3.554,-0.123 1.858,0 0,0 m -0.82,10.909 c 8.475,0 14.982,-1.49 19.522,-4.47 4.538,-2.981 6.807,-7.861 6.807,-14.641 0,-6.836 -2.296,-11.771 -6.889,-14.806 -4.594,-3.034 -11.156,-4.552 -19.686,-4.552 h -4.02 V -46.59 H -17.881 V 9.434 c 2.788,0.545 5.741,0.928 8.858,1.148 3.117,0.218 5.851,0.327 8.203,0.327"
       style="fill:#303030;fill-opacity:1;fill-rule:nonzero;stroke:none"
       id="path161"
       transform="matrix(0.63910873,0,0,-0.58923718,113.09517,120.27855)" />
    <path
       d="M 0,0 C 1.202,0 2.351,0.027 3.445,0.083 4.538,0.137 5.413,0.219 6.069,0.329 V 9.598 C 5.578,9.706 4.839,9.815 3.855,9.926 2.87,10.035 1.969,10.09 1.148,10.09 0,10.09 -1.081,10.021 -2.092,9.885 -3.104,9.748 -3.992,9.487 -4.757,9.105 -5.524,8.723 -6.125,8.203 -6.562,7.547 -7,6.891 -7.218,6.07 -7.218,5.087 -7.218,3.171 -6.576,1.846 -5.29,1.107 -4.007,0.37 -2.243,0 0,0 m -0.984,35.763 c 3.609,0 6.615,-0.41 9.022,-1.231 2.406,-0.82 4.333,-1.996 5.783,-3.526 1.448,-1.531 2.473,-3.391 3.075,-5.578 0.602,-2.188 0.904,-4.621 0.904,-7.3 V -7.3 c -1.751,-0.383 -4.184,-0.834 -7.301,-1.352 -3.117,-0.52 -6.89,-0.781 -11.319,-0.781 -2.789,0 -5.32,0.247 -7.588,0.739 -2.269,0.492 -4.224,1.298 -5.864,2.42 -1.641,1.12 -2.899,2.584 -3.774,4.388 -0.875,1.805 -1.311,4.019 -1.311,6.644 0,2.514 0.504,4.647 1.516,6.397 1.012,1.75 2.365,3.145 4.061,4.185 1.694,1.037 3.636,1.79 5.824,2.255 2.186,0.464 4.456,0.697 6.808,0.697 1.585,0 2.994,-0.069 4.223,-0.205 1.231,-0.137 2.229,-0.316 2.994,-0.533 v 1.148 c 0,2.077 -0.629,3.745 -1.886,5.004 -1.258,1.257 -3.445,1.887 -6.562,1.887 -2.078,0 -4.129,-0.152 -6.151,-0.451 -2.024,-0.302 -3.774,-0.726 -5.25,-1.273 l -1.559,9.843 c 0.71,0.219 1.6,0.452 2.666,0.698 1.067,0.246 2.228,0.464 3.486,0.656 1.257,0.191 2.584,0.355 3.978,0.492 1.395,0.136 2.803,0.205 4.225,0.205"
       style="fill:#303030;fill-opacity:1;fill-rule:nonzero;stroke:none"
       id="path165"
       transform="matrix(0.63910873,0,0,-0.58923718,144.39187,142.70468)" />
    <path
       d="m 0,0 c -1.094,0.273 -2.379,0.561 -3.854,0.862 -1.477,0.3 -3.064,0.45 -4.758,0.45 -0.766,0 -1.682,-0.068 -2.748,-0.205 -1.067,-0.136 -1.874,-0.287 -2.419,-0.45 V -32.317 H -26.001 V 8.531 c 2.187,0.765 4.77,1.49 7.751,2.174 2.98,0.683 6.302,1.025 9.966,1.025 0.656,0 1.448,-0.041 2.379,-0.123 0.928,-0.082 1.858,-0.192 2.789,-0.328 0.928,-0.137 1.857,-0.301 2.788,-0.492 0.93,-0.192 1.723,-0.425 2.379,-0.697 z"
       style="fill:#303030;fill-opacity:1;fill-rule:nonzero;stroke:none"
       id="path169"
       transform="matrix(0.63910873,0,0,-0.58923718,179.46169,128.68844)" />
    <path
       d="m 0,0 c 1.202,1.305 2.444,2.663 3.729,4.077 1.283,1.414 2.526,2.814 3.728,4.199 1.202,1.388 2.335,2.705 3.399,3.956 1.066,1.249 1.982,2.336 2.747,3.262 h 14.531 c -2.898,-3.33 -5.729,-6.509 -8.489,-9.535 -2.761,-3.028 -5.783,-6.152 -9.063,-9.372 1.641,-1.479 3.334,-3.246 5.085,-5.3 1.749,-2.054 3.444,-4.177 5.085,-6.367 1.641,-2.192 3.144,-4.383 4.512,-6.573 1.366,-2.192 2.514,-4.191 3.445,-5.998 H 14.655 c -0.873,1.425 -1.869,3.001 -2.988,4.728 -1.119,1.727 -2.306,3.452 -3.562,5.179 -1.255,1.726 -2.579,3.385 -3.97,4.974 C 2.743,-11.181 1.364,-9.838 0,-8.74 V -27.651 H -12.222 V 34.031 L 0,36 Z"
       style="fill:#303030;fill-opacity:1;fill-rule:nonzero;stroke:none"
       id="path173"
       transform="matrix(0.63910873,0,0,-0.58923718,192.77688,131.43782)" />
    <path
       id="path185-5-5"
       style="fill:#ffdd00;fill-opacity:1;fill-rule:nonzero;stroke:none;stroke-width:0.635596"
       d="m 98.308594,38.71875 c -1.990684,0.002 -3.370343,1.05963 -4.06836,3.111328 -0.605595,1.779953 -1.197269,3.565791 -1.804687,5.34375 -0.03648,0.106971 -0.0014,0.355784 -0.224609,0.275391 -0.161129,-0.0578 -0.236511,-0.175034 -0.220704,-0.40625 0.0529,-0.755433 -0.354605,-1.362203 -1.023437,-1.480469 -0.655453,-0.116936 -1.321625,-0.166021 -1.984375,-0.230469 -0.314351,-0.03056 -0.578571,0.115339 -0.695313,0.433594 -0.187878,0.512922 -0.224996,1.040714 0.05469,1.541016 0.337456,0.602618 2.112381,1.358305 2.707031,1.08789 0.356306,-0.162117 0.598619,-0.0268 0.78711,0.205078 0.183621,0.226565 -0.03291,0.474506 -0.148438,0.673829 -0.482167,0.826526 -0.974205,1.645747 -1.474609,2.458984 -0.525338,0.853101 -0.770008,1.789933 -0.767579,2.814453 0.0054,1.767994 0.02998,3.537358 -0.0078,5.304687 -0.02493,1.157402 0.171051,2.207571 0.849609,3.119141 0.492504,0.416586 0.991564,0.810317 1.626953,0.951172 0.311918,0.06976 0.618854,0.05132 0.927735,0.05664 1.070128,0.01661 2.142153,0.01874 3.212891,0.02539 2.787194,-0.0027 5.573518,-0.0085 8.361328,-0.0078 3.79347,0 7.58735,0.0045 11.38086,0.0078 1.15218,-0.008 2.30346,-0.0295 3.45507,-0.01953 0.82753,0.0066 1.5326,-0.293242 2.14063,-0.894531 0.0498,-0.04784 0.11277,-0.07865 0.16992,-0.117188 0.70714,-0.914229 0.89441,-1.978996 0.86523,-3.152344 -0.0444,-1.752711 -0.023,-3.508341 -0.008,-5.261718 0.009,-1.059733 -0.25619,-2.011691 -0.79492,-2.886719 -0.50829,-0.824531 -1.00507,-1.65769 -1.5,-2.492187 -0.26633,-0.449807 -0.22851,-0.559201 0.19531,-0.820313 0.12524,-0.07707 0.21496,-0.06633 0.33594,-0.0059 0.35449,0.177395 0.7134,0.143682 1.07031,-0.0059 0.3174,-0.132218 0.63647,-0.258447 0.95508,-0.388672 0.82449,-0.337518 1.11945,-0.890643 0.97656,-1.828125 -0.0899,-0.590659 -0.34314,-0.83549 -0.88672,-0.792968 -0.60924,0.04717 -1.21923,0.114015 -1.82421,0.207031 -0.6816,0.104977 -1.15297,0.731174 -1.09766,1.472656 0.0189,0.243174 -0.0317,0.393729 -0.22266,0.433594 -0.22072,0.04784 -0.18671,-0.207083 -0.23047,-0.333984 -0.60256,-1.764674 -1.18968,-3.5374 -1.79101,-5.302735 -0.69559,-2.042395 -2.08137,-3.094375 -4.07813,-3.095703 -5.07278,-0.004 -10.14598,-0.0047 -15.218742,0 z m 16.773436,1.121094 c 0.77342,-6.65e-4 1.30094,0.407884 1.57031,1.167968 0.64328,1.817827 1.26006,3.646195 1.88086,5.472657 0.13194,0.388013 0.008,0.586424 -0.37109,0.626953 -0.1216,0.01329 -0.24497,0.0059 -0.36719,0.0059 H 105.96289 94.169922 c -0.135591,0 -0.273092,0.01024 -0.40625,-0.01172 -0.308272,-0.04983 -0.468138,-0.210665 -0.339844,-0.580078 0.64451,-1.857024 1.275709,-3.719267 1.933594,-5.570312 0.263278,-0.740816 0.801358,-1.106758 1.527344,-1.107422 6.065684,-0.0027 12.130974,-6.06e-4 18.197264,-0.0039 z m 2.5957,12.445312 c 0.35388,0 0.66461,0.0814 0.92969,0.242188 0.26571,0.162117 0.47828,0.371114 0.64063,0.628906 0.16295,0.257127 0.28433,0.539409 0.36523,0.845703 0.0809,0.306293 0.12109,0.602232 0.1211,0.892578 0,0.869048 -0.19436,1.51435 -0.58594,1.933594 -0.39036,0.419244 -1.02681,0.626953 -1.91211,0.626953 -0.33867,0 -0.69342,-0.035 -1.0625,-0.107422 -0.36787,-0.07242 -0.63947,-0.173839 -0.81641,-0.302734 v -0.216797 c 0,-0.06445 -0.004,-0.128909 -0.0117,-0.193359 -0.007,-0.06445 -0.0117,-0.121422 -0.0117,-0.169922 0.0146,-0.580031 0.0592,-1.123249 0.13282,-1.63086 0.0742,-0.507608 0.19806,-0.949411 0.375,-1.328125 0.17694,-0.378049 0.41851,-0.677267 0.7207,-0.894531 0.3022,-0.217926 0.67259,-0.326172 1.11523,-0.326172 z m -23.505855,0.02148 c 0.44204,0 0.814998,0.110198 1.117187,0.328125 0.30219,0.217262 0.541821,0.513863 0.71875,0.892578 0.17694,0.378713 0.301401,0.822468 0.375,1.330078 0.07355,0.506945 0.118213,1.050829 0.132813,1.630859 0,0.0485 -0.0037,0.103519 -0.01172,0.167969 -0.007,0.06378 -0.0098,0.128909 -0.0098,0.193359 v 0.21875 c -0.17694,0.128895 -0.4499,0.228362 -0.81836,0.300782 -0.369079,0.07176 -0.721267,0.109375 -1.060547,0.109375 -0.884689,0 -1.523103,-0.209663 -1.914062,-0.628907 -0.39036,-0.419243 -0.585938,-1.062591 -0.585938,-1.93164 0,-0.290348 0.04155,-0.588239 0.123047,-0.894531 0.08086,-0.306294 0.200932,-0.587913 0.363281,-0.845704 0.16234,-0.257127 0.376869,-0.467454 0.642579,-0.628906 0.265099,-0.160791 0.573864,-0.242187 0.927734,-0.242187 z" />
    <path
       d="m 115.797,64.004926 c 1.15221,-0.0086 2.30382,-0.0299 3.45543,-0.01993 0.82753,0.006 1.53163,-0.294334 2.13965,-0.894962 0.0492,-0.04784 0.11371,-0.0784 0.17025,-0.117602 0.004,0.950773 0.0286,1.902212 0.007,2.851656 -0.0195,0.843803 -0.47367,1.308226 -1.24769,1.316199 -1.08776,0.01063 -2.17552,0.01 -3.26329,0 -0.80138,-0.0073 -1.24829,-0.51492 -1.25558,-1.397258 -0.005,-0.579366 -0.004,-1.158734 -0.006,-1.738101"
       style="fill:#ffdd00;fill-opacity:1;fill-rule:nonzero;stroke:none;stroke-width:0.635596"
       id="path177-6-0" />
    <path
       d="m 90.288266,62.971364 c 0.492505,0.416587 0.990481,0.809919 1.625265,0.950773 0.312526,0.0691 0.619581,0.05182 0.929068,0.05714 1.070133,0.01595 2.140873,0.01794 3.211006,0.02525 -0.0013,0.594648 0.0024,1.189297 -0.0055,1.783281 -0.01094,0.828521 -0.460279,1.341448 -1.214844,1.350749 -1.101142,0.01528 -2.202892,0.01262 -3.304034,0.0013 -0.770374,-0.0066 -1.22822,-0.477047 -1.247068,-1.316863 -0.02128,-0.950109 0.0024,-1.900882 0.0061,-2.851655"
       style="fill:#ffdd00;fill-opacity:1;fill-rule:nonzero;stroke:none;stroke-width:0.635596"
       id="path181-5-3" />
    <path
       id="path185-5-5-6"
       style="fill:#ffdd00;fill-opacity:1;fill-rule:nonzero;stroke:none;stroke-width:0.635596"
       d="m 144.06641,38.806641 c -2.5364,-8.8e-5 -5.07299,0.0016 -7.60938,0.0039 -1.99069,0.002 -3.37035,1.05963 -4.06836,3.111328 -0.6056,1.779953 -1.19727,3.565791 -1.80469,5.34375 -0.0365,0.106971 -0.001,0.355784 -0.2246,0.275391 -0.16113,-0.0578 -0.23652,-0.175037 -0.22071,-0.40625 0.0529,-0.755436 -0.3546,-1.362203 -1.02344,-1.480469 -0.65542,-0.116936 -1.32162,-0.166021 -1.98437,-0.230469 -0.31436,-0.03056 -0.57857,0.115339 -0.69531,0.433594 -0.18788,0.512922 -0.22498,1.040714 0.0547,1.541016 0.33746,0.602618 2.11239,1.358305 2.70704,1.08789 0.3563,-0.162117 0.60057,-0.0268 0.78906,0.205078 0.18362,0.226565 -0.0349,0.474508 -0.15039,0.673828 -0.48217,0.826529 -0.9742,1.645748 -1.47461,2.458985 -0.52534,0.853101 -0.77002,1.789933 -0.76758,2.814453 0.005,1.767994 0.03,3.537358 -0.008,5.304687 -0.0249,1.157402 0.173,2.207571 0.85156,3.119141 0.4925,0.416586 0.98961,0.810317 1.625,0.951172 0.31192,0.06976 0.61885,0.05132 0.92773,0.05664 1.07013,0.01661 2.14217,0.01874 3.21289,0.02539 2.7872,-0.0027 5.57355,-0.0085 8.36133,-0.0078 3.7935,0 7.58738,0.0045 11.38086,0.0078 1.15221,-0.008 2.30347,-0.0295 3.45508,-0.01953 0.82753,0.0066 1.5326,-0.293242 2.14063,-0.894531 0.0498,-0.04784 0.11277,-0.07865 0.16992,-0.117188 0.70714,-0.914229 0.89441,-1.978996 0.86523,-3.152344 -0.0444,-1.752711 -0.023,-3.508341 -0.008,-5.261718 0.009,-1.059733 -0.25619,-2.011691 -0.79492,-2.886719 -0.50829,-0.824531 -1.00507,-1.657688 -1.5,-2.492188 -0.26633,-0.449804 -0.22851,-0.5592 0.19531,-0.820312 0.12524,-0.07707 0.21691,-0.06828 0.33789,-0.0078 0.35449,0.177398 0.71145,0.145636 1.06836,-0.0039 0.3174,-0.132218 0.63647,-0.258447 0.95508,-0.388672 0.82449,-0.337518 1.11945,-0.890643 0.97656,-1.828125 -0.0899,-0.590659 -0.34314,-0.83549 -0.88672,-0.792968 -0.60924,0.04717 -1.21924,0.114015 -1.82422,0.207031 -0.6816,0.104977 -1.15101,0.731174 -1.0957,1.472656 0.0189,0.243174 -0.0337,0.393729 -0.22461,0.433594 -0.22072,0.04784 -0.18671,-0.207081 -0.23047,-0.333985 -0.60256,-1.764671 -1.18968,-3.537399 -1.79101,-5.302734 -0.69559,-2.042395 -2.08137,-3.094375 -4.07813,-3.095703 -2.5364,-0.002 -5.073,-0.0038 -7.60937,-0.0039 z m 9.16406,1.125 c 0.77342,-6.65e-4 1.30094,0.407883 1.57031,1.167968 0.64328,1.817828 1.26006,3.646191 1.88086,5.472657 0.13194,0.388014 0.008,0.586424 -0.37109,0.626953 -0.1216,0.01329 -0.24497,0.0059 -0.36719,0.0059 h -11.83203 -11.79297 c -0.13559,0 -0.27309,0.01024 -0.40625,-0.01172 -0.30827,-0.04983 -0.46813,-0.210665 -0.33984,-0.580078 0.64449,-1.857026 1.27571,-3.719265 1.93359,-5.570312 0.26328,-0.740819 0.80136,-1.106758 1.52734,-1.107422 6.06571,-0.0027 12.13095,-6.06e-4 18.19727,-0.0039 z m -20.9082,12.445312 c 0.44204,0 0.81304,0.108245 1.11523,0.326172 0.30219,0.217263 0.54182,0.515817 0.71875,0.894531 0.17694,0.378714 0.30335,0.822469 0.37695,1.330078 0.0736,0.506946 0.11626,1.048876 0.13086,1.628907 0,0.0485 -0.002,0.105472 -0.01,0.169921 -0.007,0.06378 -0.0117,0.12891 -0.0117,0.19336 v 0.216797 c -0.17694,0.128895 -0.4499,0.230314 -0.81836,0.302734 -0.36908,0.07176 -0.72127,0.109375 -1.06055,0.109375 -0.88469,0 -1.52115,-0.209663 -1.91211,-0.628906 -0.39036,-0.419244 -0.58594,-1.064545 -0.58594,-1.933594 1e-5,-0.290348 0.0396,-0.586285 0.1211,-0.892578 0.0809,-0.306294 0.20288,-0.587912 0.36523,-0.845703 0.16234,-0.257128 0.37492,-0.467455 0.64063,-0.628906 0.2651,-0.160791 0.57582,-0.242188 0.92969,-0.242188 z m 23.5039,0 c 0.35388,0 0.66266,0.0814 0.92774,0.242188 0.26571,0.162114 0.48022,0.371114 0.64257,0.628906 0.16295,0.257127 0.28434,0.537456 0.36524,0.84375 0.0809,0.306293 0.12109,0.604183 0.12109,0.894531 0,0.869047 -0.19438,1.51435 -0.58593,1.933594 -0.39036,0.419241 -1.02877,0.626953 -1.91407,0.626953 -0.33867,0 -0.69146,-0.035 -1.06054,-0.107422 -0.36787,-0.07242 -0.63947,-0.173839 -0.81641,-0.302734 v -0.216797 c 0,-0.06445 -0.004,-0.12891 -0.0117,-0.19336 -0.007,-0.06444 -0.0117,-0.121421 -0.0117,-0.169921 0.0146,-0.580031 0.0592,-1.123249 0.13281,-1.63086 0.0742,-0.507607 0.19806,-0.949411 0.375,-1.328125 0.17694,-0.378048 0.41852,-0.677267 0.72071,-0.894531 0.3022,-0.217926 0.67259,-0.326172 1.11523,-0.326172 z" />
    <path
       d="m 153.94564,64.096634 c 1.15221,-0.0086 2.30382,-0.0299 3.45543,-0.01993 0.82753,0.006 1.53163,-0.294334 2.13965,-0.894962 0.0492,-0.04784 0.11371,-0.0784 0.17025,-0.117602 0.004,0.950773 0.0286,1.902212 0.007,2.851656 -0.0195,0.843803 -0.47367,1.308226 -1.24769,1.316199 -1.08776,0.01063 -2.17552,0.01 -3.26329,0 -0.80138,-0.0073 -1.24829,-0.51492 -1.25558,-1.397258 -0.005,-0.579366 -0.004,-1.158734 -0.006,-1.738101"
       style="fill:#ffdd00;fill-opacity:1;fill-rule:nonzero;stroke:none;stroke-width:0.635596"
       id="path177-6-0-2" />
    <path
       d="m 128.43691,63.063072 c 0.4925,0.416587 0.99048,0.809919 1.62526,0.950773 0.31253,0.0691 0.61958,0.05182 0.92907,0.05714 1.07013,0.01595 2.14087,0.01794 3.21101,0.02525 -0.001,0.594648 0.002,1.189297 -0.005,1.783281 -0.0109,0.828521 -0.46028,1.341448 -1.21485,1.350749 -1.10114,0.01528 -2.20289,0.01262 -3.30403,0.0013 -0.77037,-0.0066 -1.22822,-0.477047 -1.24707,-1.316863 -0.0213,-0.950109 0.002,-1.900882 0.006,-2.851655"
       style="fill:#ffdd00;fill-opacity:1;fill-rule:nonzero;stroke:none;stroke-width:0.635596"
       id="path181-5-3-7" />
  </g>
</svg>
