<?xml version="1.0" encoding="UTF-8" standalone="no"?>
<!-- Created with Inkscape (http://www.inkscape.org/) -->

<svg
   width="250px"
   height="160px"
   viewBox="0 0 250 160"
   version="1.1"
   id="SVGRoot"
   sodipodi:docname="04_logomarca_horizontal_dark.svg"
   inkscape:version="1.2.1 (9c6d41e410, 2022-07-14)"
   xmlns:inkscape="http://www.inkscape.org/namespaces/inkscape"
   xmlns:sodipodi="http://sodipodi.sourceforge.net/DTD/sodipodi-0.dtd"
   xmlns="http://www.w3.org/2000/svg"
   xmlns:svg="http://www.w3.org/2000/svg">
  <sodipodi:namedview
     id="namedview41"
     pagecolor="#ffffff"
     bordercolor="#000000"
     borderopacity="0.25"
     inkscape:showpageshadow="2"
     inkscape:pageopacity="0.0"
     inkscape:pagecheckerboard="0"
     inkscape:deskcolor="#d1d1d1"
     inkscape:document-units="px"
     showgrid="false"
     inkscape:zoom="2.9790123"
     inkscape:cx="134.27269"
     inkscape:cy="74.185662"
     inkscape:window-width="1920"
     inkscape:window-height="1011"
     inkscape:window-x="0"
     inkscape:window-y="32"
     inkscape:window-maximized="1"
     inkscape:current-layer="layer1" />
  <defs
     id="defs36" />
  <g
     inkscape:label="Camada 1"
     inkscape:groupmode="layer"
     id="layer1">
    <g
       id="g151"
       transform="matrix(0.63910873,0,0,-0.58923718,130.83383,53.953528)"
       style="fill:#ffa800;fill-opacity:1">
      <path
         d="M 0,0 C 1.238,0 2.53,0.121 3.876,0.362 5.222,0.605 6.218,0.941 6.864,1.373 V 2.1 c 0,0.214 0.013,0.43 0.041,0.646 0.027,0.215 0.04,0.403 0.04,0.566 C 6.891,5.249 6.729,7.066 6.46,8.763 6.191,10.458 5.734,11.938 5.088,13.204 4.441,14.469 3.566,15.466 2.463,16.191 1.359,16.919 0,17.282 -1.615,17.282 c -1.292,0 -2.423,-0.269 -3.392,-0.807 -0.969,-0.539 -1.75,-1.24 -2.342,-2.1 C -7.942,13.513 -8.386,12.57 -8.681,11.548 -8.978,10.525 -9.125,9.529 -9.125,8.561 -9.125,5.652 -8.413,3.499 -6.985,2.1 -5.56,0.699 -3.23,0 0,0 M 5.896,-7.834 C 4.765,-8.372 3.513,-8.763 2.14,-9.004 0.768,-9.247 -0.404,-9.368 -1.373,-9.368 c -3.5,0 -6.488,0.417 -8.964,1.252 -2.477,0.834 -4.51,2.018 -6.097,3.554 -1.589,1.534 -2.76,3.377 -3.513,5.531 -0.755,2.152 -1.131,4.522 -1.131,7.107 0,2.153 0.364,4.362 1.09,6.621 0.727,2.262 1.87,4.322 3.433,6.18 1.56,1.856 3.539,3.391 5.935,4.602 2.395,1.211 5.29,1.817 8.682,1.817 6.945,0 12.18,-2.14 15.707,-6.419 3.526,-4.282 5.29,-10.433 5.29,-18.454 0,-5.277 -0.686,-9.933 -2.059,-13.972 -1.373,-4.038 -3.5,-7.429 -6.38,-10.175 -2.881,-2.746 -6.556,-4.833 -11.024,-6.258 -4.469,-1.428 -9.771,-2.167 -15.909,-2.221 -0.054,1.722 -0.135,3.391 -0.242,5.006 -0.109,1.615 -0.216,3.284 -0.323,5.008 3.068,0.052 5.841,0.282 8.318,0.685 2.476,0.405 4.656,1.077 6.541,2.021 1.884,0.94 3.485,2.192 4.805,3.754 1.319,1.561 2.355,3.526 3.11,5.895"
         style="fill:#ffa800;fill-opacity:1;fill-rule:nonzero;stroke:none"
         id="path153" />
    </g>
    <g
       id="g155"
       transform="matrix(0.63910873,0,0,-0.58923718,160.14981,53.953528)">
      <path
         d="M 0,0 C 1.238,0 2.53,0.121 3.876,0.362 5.222,0.605 6.218,0.941 6.864,1.373 V 2.1 c 0,0.214 0.013,0.43 0.041,0.646 0.027,0.215 0.04,0.403 0.04,0.566 C 6.891,5.249 6.729,7.066 6.46,8.763 6.191,10.458 5.734,11.938 5.088,13.204 4.441,14.469 3.566,15.466 2.463,16.191 1.359,16.919 0,17.282 -1.615,17.282 c -1.292,0 -2.423,-0.269 -3.392,-0.807 -0.969,-0.539 -1.75,-1.24 -2.342,-2.1 C -7.942,13.513 -8.386,12.57 -8.681,11.548 -8.978,10.525 -9.125,9.529 -9.125,8.561 -9.125,5.652 -8.413,3.499 -6.985,2.1 -5.56,0.699 -3.23,0 0,0 M 5.896,-7.834 C 4.765,-8.372 3.513,-8.763 2.14,-9.004 0.768,-9.247 -0.404,-9.368 -1.373,-9.368 c -3.5,0 -6.488,0.417 -8.964,1.252 -2.477,0.834 -4.51,2.018 -6.097,3.554 -1.589,1.534 -2.76,3.377 -3.513,5.531 -0.755,2.152 -1.131,4.522 -1.131,7.107 0,2.153 0.364,4.362 1.09,6.621 0.727,2.262 1.87,4.322 3.433,6.18 1.56,1.856 3.539,3.391 5.935,4.602 2.395,1.211 5.29,1.817 8.682,1.817 6.945,0 12.18,-2.14 15.707,-6.419 3.526,-4.282 5.29,-10.433 5.29,-18.454 0,-5.277 -0.686,-9.933 -2.059,-13.972 -1.373,-4.038 -3.5,-7.429 -6.38,-10.175 -2.881,-2.746 -6.556,-4.833 -11.024,-6.258 -4.469,-1.428 -9.771,-2.167 -15.909,-2.221 -0.054,1.722 -0.135,3.391 -0.242,5.006 -0.109,1.615 -0.216,3.284 -0.323,5.008 3.068,0.052 5.841,0.282 8.318,0.685 2.476,0.405 4.656,1.077 6.541,2.021 1.884,0.94 3.485,2.192 4.805,3.754 1.319,1.561 2.355,3.526 3.11,5.895"
         style="fill:#ffa800;fill-opacity:1;fill-rule:nonzero;stroke:none"
         id="path157" />
    </g>
    <g
       id="g159"
       transform="matrix(0.63910873,0,0,-0.58923718,129.80897,89.784127)"
       style="fill:#f9f9f9">
      <path
         d="M 0,0 C -0.931,0 -1.846,-0.028 -2.748,-0.081 -3.65,-0.137 -4.43,-0.191 -5.086,-0.246 v -16.405 h 4.02 c 4.429,0 7.763,0.601 10.007,1.805 2.241,1.202 3.363,3.445 3.363,6.726 0,1.585 -0.288,2.897 -0.862,3.937 -0.574,1.038 -1.394,1.872 -2.461,2.501 C 7.915,-1.054 6.616,-0.614 5.085,-0.369 3.554,-0.123 1.858,0 0,0 m -0.82,10.909 c 8.475,0 14.982,-1.49 19.522,-4.47 4.538,-2.981 6.807,-7.861 6.807,-14.641 0,-6.836 -2.296,-11.771 -6.889,-14.806 -4.594,-3.034 -11.156,-4.552 -19.686,-4.552 h -4.02 V -46.59 H -17.881 V 9.434 c 2.788,0.545 5.741,0.928 8.858,1.148 3.117,0.218 5.851,0.327 8.203,0.327"
         style="fill:#f9f9f9;fill-opacity:1;fill-rule:nonzero;stroke:none"
         id="path161" />
    </g>
    <g
       id="g163"
       transform="matrix(0.63910873,0,0,-0.58923718,161.10567,112.21026)"
       style="fill:#f9f9f9">
      <path
         d="M 0,0 C 1.202,0 2.351,0.027 3.445,0.083 4.538,0.137 5.413,0.219 6.069,0.329 V 9.598 C 5.578,9.706 4.839,9.815 3.855,9.926 2.87,10.035 1.969,10.09 1.148,10.09 0,10.09 -1.081,10.021 -2.092,9.885 -3.104,9.748 -3.992,9.487 -4.757,9.105 -5.524,8.723 -6.125,8.203 -6.562,7.547 -7,6.891 -7.218,6.07 -7.218,5.087 -7.218,3.171 -6.576,1.846 -5.29,1.107 -4.007,0.37 -2.243,0 0,0 m -0.984,35.763 c 3.609,0 6.615,-0.41 9.022,-1.231 2.406,-0.82 4.333,-1.996 5.783,-3.526 1.448,-1.531 2.473,-3.391 3.075,-5.578 0.602,-2.188 0.904,-4.621 0.904,-7.3 V -7.3 c -1.751,-0.383 -4.184,-0.834 -7.301,-1.352 -3.117,-0.52 -6.89,-0.781 -11.319,-0.781 -2.789,0 -5.32,0.247 -7.588,0.739 -2.269,0.492 -4.224,1.298 -5.864,2.42 -1.641,1.12 -2.899,2.584 -3.774,4.388 -0.875,1.805 -1.311,4.019 -1.311,6.644 0,2.514 0.504,4.647 1.516,6.397 1.012,1.75 2.365,3.145 4.061,4.185 1.694,1.037 3.636,1.79 5.824,2.255 2.186,0.464 4.456,0.697 6.808,0.697 1.585,0 2.994,-0.069 4.223,-0.205 1.231,-0.137 2.229,-0.316 2.994,-0.533 v 1.148 c 0,2.077 -0.629,3.745 -1.886,5.004 -1.258,1.257 -3.445,1.887 -6.562,1.887 -2.078,0 -4.129,-0.152 -6.151,-0.451 -2.024,-0.302 -3.774,-0.726 -5.25,-1.273 l -1.559,9.843 c 0.71,0.219 1.6,0.452 2.666,0.698 1.067,0.246 2.228,0.464 3.486,0.656 1.257,0.191 2.584,0.355 3.978,0.492 1.395,0.136 2.803,0.205 4.225,0.205"
         style="fill:#f9f9f9;fill-opacity:1;fill-rule:nonzero;stroke:none"
         id="path165" />
    </g>
    <g
       id="g167"
       transform="matrix(0.63910873,0,0,-0.58923718,196.17549,98.194018)"
       style="fill:#f9f9f9">
      <path
         d="m 0,0 c -1.094,0.273 -2.379,0.561 -3.854,0.862 -1.477,0.3 -3.064,0.45 -4.758,0.45 -0.766,0 -1.682,-0.068 -2.748,-0.205 -1.067,-0.136 -1.874,-0.287 -2.419,-0.45 V -32.317 H -26.001 V 8.531 c 2.187,0.765 4.77,1.49 7.751,2.174 2.98,0.683 6.302,1.025 9.966,1.025 0.656,0 1.448,-0.041 2.379,-0.123 0.928,-0.082 1.858,-0.192 2.789,-0.328 0.928,-0.137 1.857,-0.301 2.788,-0.492 0.93,-0.192 1.723,-0.425 2.379,-0.697 z"
         style="fill:#f9f9f9;fill-opacity:1;fill-rule:nonzero;stroke:none"
         id="path169" />
    </g>
    <g
       id="g171"
       transform="matrix(0.63910873,0,0,-0.58923718,209.49068,100.9434)"
       style="fill:#f9f9f9">
      <path
         d="m 0,0 c 1.202,1.305 2.444,2.663 3.729,4.077 1.283,1.414 2.526,2.814 3.728,4.199 1.202,1.388 2.335,2.705 3.399,3.956 1.066,1.249 1.982,2.336 2.747,3.262 h 14.531 c -2.898,-3.33 -5.729,-6.509 -8.489,-9.535 -2.761,-3.028 -5.783,-6.152 -9.063,-9.372 1.641,-1.479 3.334,-3.246 5.085,-5.3 1.749,-2.054 3.444,-4.177 5.085,-6.367 1.641,-2.192 3.144,-4.383 4.512,-6.573 1.366,-2.192 2.514,-4.191 3.445,-5.998 H 14.655 c -0.873,1.425 -1.869,3.001 -2.988,4.728 -1.119,1.727 -2.306,3.452 -3.562,5.179 -1.255,1.726 -2.579,3.385 -3.97,4.974 C 2.743,-11.181 1.364,-9.838 0,-8.74 V -27.651 H -12.222 V 34.031 L 0,36 Z"
         style="fill:#f9f9f9;fill-opacity:1;fill-rule:nonzero;stroke:none"
         id="path173" />
    </g>
    <path
       id="path145-3"
       style="fill:#f9f9f9;fill-opacity:1;fill-rule:nonzero;stroke:none;stroke-width:0.691634"
       d="m 63.107362,25.204509 c -23.972701,0 -43.406465,20.062394 -43.406465,44.811603 0,24.749219 36.564812,60.096558 43.406465,60.096558 0.36145,0 0.810467,-0.10291 1.327806,-0.29334 9.281927,-3.41604 42.078652,-36.361808 42.078652,-59.803218 0,-20.53556 -13.380129,-37.843741 -31.630933,-43.142426 -3.745148,-1.087145 -7.694079,-1.669177 -11.775525,-1.669177 z m 0,9.073049 c 18.998929,0 34.401642,15.37213 34.401642,34.333807 0,1.849392 -0.151606,3.662907 -0.433696,5.433088 0.04462,0.0569 0.0864,0.117446 0.125381,0.179724 0.171484,0.271954 0.299233,0.570531 0.38437,0.894493 0.08514,0.323962 0.127432,0.636976 0.127432,0.944078 0,0.919191 -0.20455,1.601722 -0.616619,2.045151 -0.260116,0.280776 -0.624744,0.471616 -1.093494,0.574297 -4.312812,14.046806 -17.407924,24.262964 -32.895016,24.262964 -15.524919,0 -28.645543,-10.266409 -32.925854,-24.366258 -0.454016,-0.104184 -0.809858,-0.293427 -1.06471,-0.568089 -0.410803,-0.443439 -0.614572,-1.123908 -0.614572,-2.043099 -1e-6,-0.307091 0.0417,-0.622168 0.127436,-0.94614 0.08511,-0.323962 0.213518,-0.62183 0.384365,-0.894494 0.0348,-0.05542 0.07172,-0.109884 0.110992,-0.161129 -0.273906,-1.745125 -0.419306,-3.532737 -0.419306,-5.354586 0,-18.961677 15.402705,-34.333807 34.401649,-34.333807 z" />
    <path
       id="path185-5-5-67"
       style="fill:#ffa800;fill-opacity:1;fill-rule:nonzero;stroke:none;stroke-width:0.670575"
       d="m 35.017923,58.856594 c -2.094951,0.0021 -3.546873,1.120766 -4.281451,3.290841 -0.637314,1.882646 -1.259979,3.771522 -1.899212,5.652063 -0.03839,0.113142 -0.0015,0.376307 -0.236373,0.291279 -0.169569,-0.06114 -0.248899,-0.185128 -0.232264,-0.429689 0.05567,-0.799015 -0.373178,-1.440793 -1.077042,-1.565887 -0.689784,-0.123687 -1.390849,-0.175599 -2.088312,-0.243767 -0.330816,-0.03237 -0.608875,0.121994 -0.731732,0.458617 -0.197718,0.542513 -0.23678,1.100755 0.05755,1.62992 0.355131,0.637389 2.223022,1.436679 2.848818,1.150657 0.374969,-0.171474 0.629974,-0.02835 0.828337,0.216912 0.193239,0.239632 -0.03463,0.501887 -0.156213,0.712707 -0.507421,0.874207 -1.025231,1.740704 -1.551845,2.600854 -0.552854,0.90232 -0.810339,1.893212 -0.807783,2.976843 0.0057,1.869996 0.03155,3.741441 -0.0082,5.610739 -0.02624,1.224177 0.18001,2.334938 0.894109,3.299102 0.5183,0.440625 1.0435,0.857072 1.712169,1.006059 0.328255,0.07383 0.651268,0.05426 0.976327,0.05987 1.126179,0.01756 2.254354,0.01978 3.381174,0.02687 2.933181,-0.0032 5.865445,-0.0085 8.799274,-0.0085 3.992162,0 7.984756,0.0053 11.976965,0.0085 1.212528,-0.0085 2.42411,-0.0312 3.636038,-0.02063 0.870874,0.0074 1.612874,-0.310169 2.252751,-0.946151 0.05241,-0.05056 0.118676,-0.08313 0.17882,-0.123941 0.744178,-0.966978 0.941257,-2.093181 0.910548,-3.334228 -0.04673,-1.853835 -0.0242,-3.710757 -0.0084,-5.5653 0.0095,-1.120873 -0.269608,-2.127757 -0.836556,-3.053262 -0.534912,-0.872113 -1.057713,-1.753332 -1.578566,-2.63598 -0.280279,-0.475762 -0.240479,-0.591463 0.20554,-0.867638 0.1318,-0.08155 0.226219,-0.07013 0.353536,-0.0063 0.373057,0.187624 0.750766,0.151969 1.12637,-0.0063 0.334025,-0.139848 0.669807,-0.273361 1.005105,-0.411105 0.867674,-0.356983 1.178084,-0.942026 1.027709,-1.933595 -0.09461,-0.624739 -0.361112,-0.883695 -0.933164,-0.838721 -0.64115,0.04992 -1.28309,0.120598 -1.919757,0.218975 -0.717301,0.111036 -1.21336,0.773366 -1.155153,1.557626 0.01989,0.2572 -0.03336,0.416447 -0.234322,0.458607 -0.232281,0.05056 -0.19649,-0.219028 -0.242542,-0.35325 -0.63412,-1.866495 -1.251992,-3.741494 -1.884818,-5.608687 -0.732024,-2.160227 -2.190387,-3.272903 -4.291737,-3.274309 -5.338479,-0.0042 -10.677401,-0.0053 -16.015862,0 z m 17.651991,1.185772 c 0.813929,-6.98e-4 1.36908,0.431424 1.652558,1.235358 0.676974,1.922711 1.326059,3.856571 1.979375,5.78841 0.138851,0.410397 0.0084,0.620254 -0.390527,0.663123 -0.127969,0.01407 -0.257801,0.0063 -0.386422,0.0063 H 43.073132 30.662477 c -0.142692,0 -0.287395,0.01079 -0.427528,-0.01237 -0.324418,-0.05267 -0.492658,-0.222814 -0.357644,-0.613548 0.678268,-1.964163 1.342527,-3.933847 2.034871,-5.891695 0.277068,-0.783552 0.843331,-1.170616 1.607342,-1.171314 6.38339,-0.0032 12.766364,-6.45e-4 19.150396,-0.0042 z m 2.731656,13.163366 c 0.372415,0 0.69942,0.0861 0.978385,0.256153 0.279627,0.171473 0.503331,0.392532 0.674184,0.665195 0.171485,0.271966 0.299223,0.570532 0.38436,0.894494 0.08514,0.323972 0.127432,0.636986 0.127443,0.944078 0,0.919191 -0.20454,1.601722 -0.61663,2.045161 -0.410806,0.443428 -1.080592,0.663122 -2.012262,0.663122 -0.356408,0 -0.729739,-0.03702 -1.118151,-0.113617 -0.387138,-0.07658 -0.672964,-0.18387 -0.859171,-0.320207 v -0.229298 c 0,-0.06812 -0.0042,-0.136348 -0.01231,-0.204516 -0.0074,-0.06822 -0.01231,-0.128436 -0.01231,-0.179734 0.01537,-0.613496 0.0623,-1.188047 0.139777,-1.724955 0.07809,-0.536886 0.208434,-1.004187 0.394641,-1.404747 0.186208,-0.399862 0.440431,-0.716346 0.758449,-0.946141 0.318028,-0.230503 0.707819,-0.344988 1.173643,-0.344988 z m -24.737037,0.02274 c 0.465193,0 0.857685,0.116548 1.175702,0.347051 0.318018,0.229795 0.5702,0.543508 0.756397,0.944079 0.186207,0.40056 0.317187,0.869923 0.394641,1.40682 0.0774,0.536188 0.124405,1.111459 0.139769,1.724954 0,0.0513 -0.0039,0.109493 -0.01233,0.177661 -0.0074,0.06748 -0.01031,0.136337 -0.01031,0.204506 v 0.231371 c -0.186207,0.136337 -0.473464,0.241546 -0.861223,0.318144 -0.388411,0.07594 -0.759045,0.11568 -1.116096,0.11568 -0.931027,0 -1.602879,-0.221756 -2.014316,-0.665195 -0.410806,-0.443429 -0.616628,-1.123897 -0.616628,-2.043088 0,-0.307092 0.04373,-0.622169 0.129492,-0.946141 0.08509,-0.323962 0.211456,-0.62183 0.382309,-0.894493 0.170843,-0.271966 0.396608,-0.49442 0.676235,-0.665196 0.278985,-0.170067 0.603922,-0.256153 0.976327,-0.256153 z" />
    <path
       d="m 53.422332,85.601686 c 1.21256,-0.0095 2.424488,-0.03163 3.636417,-0.02105 0.870874,0.0063 1.611853,-0.311323 2.251719,-0.946607 0.05178,-0.05056 0.119666,-0.08292 0.179167,-0.124385 0.0042,1.005637 0.0301,2.01196 0.0074,3.01619 -0.02052,0.892484 -0.49848,1.383699 -1.313041,1.392139 -1.144734,0.01121 -2.289468,0.01058 -3.434213,0 -0.843354,-0.0074 -1.313672,-0.544629 -1.321344,-1.477876 -0.0053,-0.612797 -0.0042,-1.225584 -0.0063,-1.838382"
       style="fill:#ffa800;fill-opacity:1;fill-rule:nonzero;stroke:none;stroke-width:0.670575"
       id="path177-6-0-5" />
    <path
       d="m 26.57751,84.508483 c 0.518301,0.440625 1.04236,0.856649 1.710392,1.005636 0.328896,0.07309 0.652033,0.05479 0.977731,0.06039 1.126183,0.01692 2.253006,0.01893 3.37919,0.02665 -0.0014,0.628959 0.0025,1.257908 -0.0058,1.886169 -0.01151,0.876322 -0.484387,1.418846 -1.278475,1.428683 -1.158817,0.01618 -2.318274,0.01333 -3.477091,0.0011 -0.810724,-0.0074 -1.292551,-0.504574 -1.312386,-1.392848 -0.02239,-1.004917 0.0025,-2.010553 0.0064,-3.016179"
       style="fill:#ffa800;fill-opacity:1;fill-rule:nonzero;stroke:none;stroke-width:0.670575"
       id="path181-5-3-3" />
    <path
       id="path185-5-5-6"
       style="fill:#ffa800;fill-opacity:1;fill-rule:nonzero;stroke:none;stroke-width:0.670575"
       d="m 83.172423,58.949555 c -2.66925,-9.5e-5 -5.338701,0.0021 -8.00794,0.0042 -2.094958,0.0021 -3.546881,1.120766 -4.281451,3.290841 -0.63732,1.882646 -1.25998,3.771522 -1.899215,5.652063 -0.03841,0.113142 -0.0011,0.376307 -0.236364,0.291279 -0.16957,-0.06113 -0.248908,-0.185139 -0.23227,-0.429689 0.05567,-0.799026 -0.373173,-1.440794 -1.077046,-1.565887 -0.689749,-0.123677 -1.390843,-0.175599 -2.088306,-0.243768 -0.330825,-0.03237 -0.608874,0.121995 -0.731729,0.458617 -0.19772,0.542514 -0.236763,1.100755 0.05757,1.629921 0.355135,0.637388 2.223031,1.436679 2.848828,1.150657 0.374962,-0.171464 0.632026,-0.02835 0.830389,0.216912 0.193237,0.239642 -0.03673,0.501887 -0.158268,0.712707 -0.507424,0.874218 -1.025226,1.740703 -1.551846,2.600853 -0.552856,0.902321 -0.810352,1.893213 -0.807784,2.976844 0.0053,1.869996 0.03157,3.741441 -0.0084,5.610739 -0.0262,1.224187 0.182061,2.334938 0.896163,3.299101 0.518296,0.440626 1.041443,0.857073 1.710113,1.00606 0.328258,0.07383 0.651264,0.05426 0.976322,0.05987 1.126181,0.01756 2.254372,0.01978 3.381173,0.02687 2.933187,-0.0032 5.865479,-0.0085 8.799276,-0.0085 3.992194,0 7.984788,0.0053 11.976961,0.0085 1.21256,-0.0085 2.42412,-0.0312 3.636048,-0.02062 0.870874,0.0074 1.612874,-0.31017 2.252751,-0.946141 0.05241,-0.05056 0.118677,-0.08324 0.17882,-0.123951 0.744172,-0.966978 0.941252,-2.093181 0.910542,-3.334228 -0.0467,-1.853835 -0.0242,-3.710758 -0.008,-5.56529 0.009,-1.120883 -0.26961,-2.127767 -0.836557,-3.053272 -0.534914,-0.872103 -1.057714,-1.753333 -1.578567,-2.63598 -0.28028,-0.475762 -0.240479,-0.591463 0.205539,-0.867638 0.1318,-0.08155 0.228272,-0.07224 0.355588,-0.0085 0.373058,0.187625 0.748714,0.154032 1.124319,-0.0042 0.334018,-0.139848 0.669808,-0.273361 1.005098,-0.411105 0.86768,-0.356983 1.17809,-0.942027 1.02771,-1.933595 -0.0946,-0.624739 -0.36111,-0.883695 -0.93316,-0.838722 -0.64115,0.04992 -1.283099,0.120599 -1.919766,0.218975 -0.717301,0.111037 -1.211297,0.773366 -1.15309,1.557627 0.01989,0.2572 -0.03547,0.416446 -0.236375,0.458606 -0.232281,0.05056 -0.196489,-0.219027 -0.242541,-0.353249 -0.634121,-1.866484 -1.251993,-3.741494 -1.884819,-5.608687 -0.732023,-2.160228 -2.190387,-3.272903 -4.291732,-3.27431 -2.669251,-0.0021 -5.338711,-0.0042 -8.00793,-0.0042 z m 9.64405,1.189908 c 0.81393,-6.98e-4 1.36908,0.431413 1.652559,1.235357 0.676974,1.922712 1.326059,3.856561 1.979375,5.788411 0.138851,0.410396 0.0084,0.620254 -0.390527,0.663122 -0.127969,0.01407 -0.257801,0.0063 -0.386422,0.0063 H 83.219696 70.809039 c -0.142692,0 -0.287393,0.01079 -0.427528,-0.01238 -0.324416,-0.05267 -0.492649,-0.222824 -0.35764,-0.613548 0.678247,-1.964163 1.342529,-3.933846 2.034867,-5.891695 0.27707,-0.783562 0.843333,-1.170615 1.607338,-1.171313 6.383417,-0.0032 12.766339,-6.46e-4 19.150397,-0.0042 z M 70.813154,73.302818 c 0.465193,0 0.855625,0.114495 1.173643,0.344999 0.318018,0.229795 0.570199,0.54557 0.756396,0.946141 0.186208,0.40056 0.319239,0.869923 0.396694,1.406809 0.07746,0.536199 0.12235,1.109397 0.137714,1.722892 0,0.0513 -0.0021,0.111555 -0.01052,0.179724 -0.0074,0.06748 -0.01231,0.136347 -0.01231,0.204516 v 0.229308 c -0.186208,0.136327 -0.473465,0.243598 -0.861224,0.320197 -0.388411,0.07594 -0.759048,0.11569 -1.116099,0.11569 -0.931028,0 -1.600824,-0.221756 -2.012261,-0.665195 -0.410807,-0.443429 -0.616631,-1.12596 -0.616631,-2.045151 1.1e-5,-0.307102 0.04167,-0.620116 0.127443,-0.944078 0.08514,-0.323962 0.213507,-0.62183 0.38436,-0.894493 0.170843,-0.271966 0.394558,-0.494431 0.674185,-0.665196 0.278985,-0.170067 0.60598,-0.256163 0.978385,-0.256163 z m 24.734976,0 c 0.372415,0 0.697368,0.0861 0.976332,0.256163 0.279628,0.171474 0.505373,0.392532 0.676227,0.665196 0.171484,0.271954 0.299233,0.568458 0.38437,0.892431 0.08514,0.323961 0.127432,0.639038 0.127432,0.94614 0,0.919191 -0.204561,1.601722 -0.616619,2.045151 -0.410806,0.443428 -1.082655,0.663133 -2.014324,0.663133 -0.356409,0 -0.727677,-0.03702 -1.116089,-0.113628 -0.387138,-0.07658 -0.672964,-0.18387 -0.859171,-0.320197 v -0.229308 c 0,-0.06812 -0.0042,-0.136348 -0.01231,-0.204516 -0.0074,-0.06812 -0.01231,-0.128426 -0.01231,-0.179724 0.01537,-0.613495 0.0623,-1.188057 0.139766,-1.724954 0.07809,-0.536897 0.208434,-1.004187 0.394642,-1.404747 0.186207,-0.399862 0.440441,-0.716346 0.758459,-0.946141 0.318028,-0.230504 0.707818,-0.344999 1.173643,-0.344999 z" />
    <path
       d="m 93.569102,85.698676 c 1.21256,-0.0095 2.424488,-0.03163 3.636417,-0.02105 0.870874,0.0063 1.611853,-0.311311 2.251719,-0.946595 0.05178,-0.05056 0.119666,-0.08292 0.179168,-0.124385 0.0042,1.005625 0.0301,2.01196 0.0074,3.016189 -0.02052,0.892484 -0.498479,1.383699 -1.313041,1.39214 -1.144734,0.01121 -2.289468,0.01058 -3.434212,0 -0.843355,-0.0074 -1.313673,-0.544629 -1.321345,-1.477877 -0.0053,-0.612797 -0.0042,-1.225594 -0.0063,-1.838381"
       style="fill:#ffa800;fill-opacity:1;fill-rule:nonzero;stroke:none;stroke-width:0.670575"
       id="path177-6-0-2" />
    <path
       d="m 66.724289,84.605484 c 0.518296,0.440626 1.042359,0.856649 1.710387,1.005636 0.328899,0.07309 0.652032,0.05479 0.977732,0.06039 1.126181,0.01692 2.253004,0.01893 3.379195,0.02665 -0.0011,0.628948 0.0021,1.257907 -0.0053,1.886168 -0.01147,0.876322 -0.484388,1.418846 -1.278481,1.428683 -1.158815,0.01618 -2.318272,0.01333 -3.477087,0.0011 -0.81072,-0.0074 -1.292551,-0.504574 -1.312388,-1.392849 -0.02242,-1.004927 0.0021,-2.010553 0.0063,-3.016178"
       style="fill:#ffa800;fill-opacity:1;fill-rule:nonzero;stroke:none;stroke-width:0.670575"
       id="path181-5-3-7" />
  </g>
</svg>
