<?xml version="1.0" encoding="UTF-8" standalone="no"?>
<!-- Created with Inkscape (http://www.inkscape.org/) -->

<svg
   width="250px"
   height="160px"
   viewBox="0 0 250 160"
   version="1.1"
   id="SVGRoot"
   sodipodi:docname="06_logomarca_icone_dark.svg"
   inkscape:version="1.2.1 (9c6d41e410, 2022-07-14)"
   inkscape:export-filename="05_logomarca_icone_test.svg"
   inkscape:export-xdpi="600"
   inkscape:export-ydpi="600"
   xmlns:inkscape="http://www.inkscape.org/namespaces/inkscape"
   xmlns:sodipodi="http://sodipodi.sourceforge.net/DTD/sodipodi-0.dtd"
   xmlns="http://www.w3.org/2000/svg"
   xmlns:svg="http://www.w3.org/2000/svg">
  <sodipodi:namedview
     id="namedview41"
     pagecolor="#ffffff"
     bordercolor="#000000"
     borderopacity="0.25"
     inkscape:showpageshadow="2"
     inkscape:pageopacity="0.0"
     inkscape:pagecheckerboard="0"
     inkscape:deskcolor="#d1d1d1"
     inkscape:document-units="px"
     showgrid="false"
     inkscape:zoom="2.9790123"
     inkscape:cx="85.766682"
     inkscape:cy="35.917945"
     inkscape:window-width="1920"
     inkscape:window-height="1011"
     inkscape:window-x="0"
     inkscape:window-y="32"
     inkscape:window-maximized="1"
     inkscape:current-layer="layer1" />
  <defs
     id="defs36" />
  <g
     inkscape:label="Camada 1"
     inkscape:groupmode="layer"
     id="layer1">
    <path
       id="path145-3"
       style="fill:#f9f9f9;fill-opacity:1;fill-rule:nonzero;stroke:none;stroke-width:0.994306"
       d="m 122.78928,3.4795254 c -33.808508,0 -61.215786,29.4009366 -61.215786,65.6702836 0,36.269361 51.567066,88.069991 61.215786,88.069991 0.50975,0 1.143,-0.15081 1.87259,-0.42988 13.09022,-5.00612 59.34319,-53.28731 59.34319,-87.640111 0,-30.09435 -18.86989,-55.459056 -44.60886,-63.2241469 -5.28174,-1.5931832 -10.85089,-2.4461367 -16.60692,-2.4461367 z m 0,13.2963266 c 26.79404,0 48.51636,22.527472 48.51636,50.315336 0,2.710237 -0.21382,5.367898 -0.61164,7.962053 0.0629,0.08339 0.12185,0.172116 0.17683,0.263382 0.24183,0.398542 0.422,0.836099 0.54207,1.310857 0.12002,0.474759 0.17971,0.933473 0.17971,1.383523 0,1.347051 -0.28847,2.347284 -0.86961,2.997117 -0.36684,0.411471 -0.88108,0.691142 -1.54215,0.841618 -6.08233,20.585242 -24.55026,35.556762 -46.39157,35.556762 -21.89467,0 -40.398575,-15.04517 -46.435064,-35.708136 -0.640295,-0.15268 -1.142135,-0.43001 -1.501551,-0.83252 -0.579352,-0.64985 -0.866727,-1.64706 -0.866727,-2.994111 -10e-7,-0.450035 0.05881,-0.911772 0.179723,-1.386545 0.120029,-0.474757 0.301123,-0.911275 0.542066,-1.310859 0.04908,-0.08121 0.10115,-0.161031 0.156531,-0.23613 -0.386286,-2.557437 -0.591343,-5.177137 -0.591343,-7.847011 0,-27.787864 21.722298,-50.315336 48.516365,-50.315336 z" />
    <path
       id="path185-5-5-67"
       style="fill:#ffdd00;fill-opacity:1;fill-rule:nonzero;stroke:none;stroke-width:0.964031"
       d="m 83.281663,52.674329 c -2.954493,0.0031 -5.002127,1.642455 -6.038096,4.822646 -0.898799,2.75897 -1.776938,5.527071 -2.678444,8.282957 -0.05414,0.165807 -0.0021,0.551468 -0.333354,0.426862 -0.239143,-0.0896 -0.351021,-0.2713 -0.327561,-0.629698 0.07851,-1.170937 -0.52629,-2.111447 -1.518943,-2.294769 -0.972798,-0.18126 -1.961504,-0.257335 -2.94513,-0.357234 -0.466548,-0.04744 -0.858692,0.178778 -1.031957,0.672092 -0.278839,0.795038 -0.333928,1.613128 0.08116,2.388606 0.500838,0.934077 3.135109,2.105418 4.017665,1.68626 0.528816,-0.251291 0.888447,-0.04155 1.168196,0.317878 0.272524,0.351175 -0.04883,0.735504 -0.220306,1.044455 -0.715612,1.281129 -1.445875,2.550958 -2.188554,3.811487 -0.779685,1.322327 -1.142815,2.774454 -1.13921,4.362488 0.008,2.740433 0.04449,5.482988 -0.01156,8.222398 -0.03701,1.793996 0.253867,3.421791 1.260954,4.834747 0.730955,0.645728 1.47164,1.256025 2.414658,1.474355 0.462936,0.108149 0.918479,0.07947 1.376907,0.08771 1.588241,0.02569 3.179298,0.02904 4.768443,0.03932 4.136649,-0.0048 8.271999,-0.01243 12.409544,-0.01243 5.630115,0 11.260855,0.0072 16.891045,0.01243 1.70999,-0.01243 3.41869,-0.04577 5.12787,-0.03023 1.22818,0.01076 2.27462,-0.454549 3.17701,-1.386569 0.0739,-0.07409 0.16738,-0.12182 0.2522,-0.181631 1.04952,-1.417078 1.32746,-3.067507 1.28414,-4.886226 -0.0659,-2.716749 -0.0341,-5.438021 -0.0118,-8.155808 0.0142,-1.642611 -0.38023,-3.118175 -1.17977,-4.474479 -0.7544,-1.27806 -1.4917,-2.569465 -2.22625,-3.862964 -0.39528,-0.697217 -0.33915,-0.866773 0.28988,-1.2715 0.18587,-0.119511 0.31902,-0.102772 0.49858,-0.0092 0.52612,0.274959 1.0588,0.222706 1.58852,-0.0092 0.47106,-0.204943 0.94462,-0.400604 1.41749,-0.602464 1.22367,-0.52315 1.66144,-1.380515 1.44936,-2.833635 -0.13341,-0.915539 -0.50926,-1.295033 -1.31602,-1.229124 -0.90421,0.07316 -1.80954,0.176733 -2.70743,0.320902 -1.0116,0.16272 -1.71119,1.133348 -1.6291,2.282662 0.0281,0.37692 -0.0471,0.610293 -0.33047,0.672076 -0.32759,0.07409 -0.27711,-0.320979 -0.34205,-0.517678 -0.8943,-2.735302 -1.76567,-5.483066 -2.65815,-8.219391 -1.03236,-3.165758 -3.08907,-4.796358 -6.05259,-4.798418 -7.52882,-0.0062 -15.058251,-0.0078 -22.587058,0 z m 24.894457,1.73772 c 1.14789,-0.001 1.93081,0.63224 2.3306,1.810386 0.95472,2.817685 1.87013,5.651709 2.79149,8.48277 0.19582,0.601427 0.0118,0.908967 -0.55074,0.971791 -0.18048,0.02061 -0.36358,0.0092 -0.54498,0.0092 H 94.641877 77.139212 c -0.201238,0 -0.405311,0.01581 -0.602939,-0.01813 -0.457525,-0.07719 -0.694792,-0.326529 -0.504382,-0.89914 0.956556,-2.878432 1.893354,-5.764954 2.869761,-8.634132 0.390748,-1.148275 1.189343,-1.715508 2.266822,-1.71653 9.002445,-0.0047 18.00431,-9.46e-4 27.007646,-0.0062 z m 3.85245,19.290584 c 0.52521,0 0.98639,0.126177 1.3798,0.375385 0.39436,0.251289 0.70984,0.575246 0.9508,0.974827 0.24185,0.398559 0.42199,0.8361 0.54206,1.310858 0.12002,0.474773 0.17971,0.933487 0.17974,1.383523 0,1.347052 -0.28847,2.347284 -0.86964,2.997132 -0.57936,0.649834 -1.52395,0.971789 -2.83787,0.971789 -0.50264,0 -1.02915,-0.05425 -1.57692,-0.166502 -0.54598,-0.112225 -0.94908,-0.269458 -1.2117,-0.469256 v -0.336031 c 0,-0.09983 -0.006,-0.199814 -0.0173,-0.299712 -0.009,-0.09998 -0.0173,-0.18822 -0.0173,-0.263397 0.0217,-0.899062 0.0878,-1.741052 0.19713,-2.527878 0.1101,-0.786793 0.29396,-1.471611 0.55655,-2.058621 0.2626,-0.585988 0.62113,-1.049787 1.06963,-1.386546 0.44853,-0.337796 0.99823,-0.505571 1.65518,-0.505571 z m -34.886459,0.03333 c 0.656059,0 1.209587,0.170798 1.658083,0.508594 0.448499,0.336759 0.80415,0.796497 1.066741,1.383524 0.262606,0.587012 0.447326,1.274851 0.55656,2.06166 0.109151,0.785771 0.175447,1.628815 0.197115,2.527877 0,0.07518 -0.0055,0.160459 -0.01739,0.260358 -0.01038,0.09889 -0.01454,0.199799 -0.01454,0.299699 v 0.339068 c -0.262605,0.199799 -0.667721,0.35398 -1.214575,0.466232 -0.547773,0.111292 -1.070475,0.169526 -1.574022,0.169526 -1.313019,0 -2.260527,-0.324978 -2.840774,-0.974826 -0.579356,-0.649835 -0.869624,-1.647044 -0.869624,-2.994095 0,-0.450036 0.06167,-0.911772 0.18262,-1.386545 0.120003,-0.474759 0.298216,-0.911277 0.539168,-1.310858 0.240939,-0.398559 0.559333,-0.72456 0.953689,-0.974829 0.39345,-0.249228 0.851706,-0.375385 1.376906,-0.375385 z" />
    <path
       d="m 109.23726,91.868598 c 1.71007,-0.01386 3.41924,-0.04637 5.12841,-0.03083 1.22819,0.0096 2.27319,-0.456235 3.17558,-1.387227 0.073,-0.07409 0.16876,-0.121521 0.25268,-0.182288 0.006,1.473746 0.0425,2.948484 0.009,4.42015 -0.0289,1.307913 -0.703,2.027781 -1.85177,2.040149 -1.6144,0.01649 -3.22881,0.01554 -4.84323,0 -1.18939,-0.01076 -1.85267,-0.798141 -1.8635,-2.165793 -0.007,-0.898033 -0.006,-1.796055 -0.008,-2.6941"
       style="fill:#ffdd00;fill-opacity:1;fill-rule:nonzero;stroke:none;stroke-width:0.964031"
       id="path177-6-0-5" />
    <path
       d="m 71.378215,90.266531 c 0.730956,0.645729 1.470032,1.255392 2.412153,1.473734 0.46384,0.107074 0.919556,0.08031 1.378886,0.08855 1.588246,0.02474 3.177396,0.02772 4.765644,0.03908 -0.002,0.921719 0.0035,1.843437 -0.0081,2.764128 -0.01623,1.284228 -0.683127,2.079286 -1.803022,2.09371 -1.63427,0.02366 -3.269443,0.01948 -4.903714,0.0012 -1.143357,-0.01075 -1.822874,-0.73943 -1.850847,-2.041177 -0.03158,-1.472682 0.0035,-2.946416 0.009,-4.420138"
       style="fill:#ffdd00;fill-opacity:1;fill-rule:nonzero;stroke:none;stroke-width:0.964031"
       id="path181-5-3-3" />
    <path
       id="path185-5-5-6"
       style="fill:#ffdd00;fill-opacity:1;fill-rule:nonzero;stroke:none;stroke-width:0.964031"
       d="m 151.01835,52.936577 c -3.76442,-1.38e-4 -7.52913,0.0031 -11.29354,0.0062 -2.9545,0.0031 -5.00213,1.642453 -6.0381,4.822644 -0.8988,2.758971 -1.77693,5.527071 -2.67844,8.282957 -0.0542,0.165807 -0.001,0.551468 -0.33334,0.426862 -0.23915,-0.08959 -0.35104,-0.271316 -0.32757,-0.629698 0.0786,-1.170952 -0.52628,-2.111448 -1.51896,-2.294769 -0.97274,-0.181245 -1.96149,-0.257335 -2.94511,-0.357235 -0.46657,-0.04744 -0.85869,0.178781 -1.03195,0.672092 -0.27884,0.79504 -0.33391,1.613129 0.0812,2.388608 0.50084,0.934077 3.13513,2.105417 4.01768,1.686259 0.52881,-0.251276 0.89134,-0.04155 1.1711,0.31788 0.27251,0.351189 -0.0518,0.735502 -0.22321,1.044454 -0.71562,1.281145 -1.44587,2.550957 -2.18856,3.811485 -0.77968,1.322328 -1.14283,2.774456 -1.13921,4.36249 0.007,2.740432 0.0446,5.482988 -0.0118,8.222397 -0.0369,1.79402 0.25676,3.421792 1.26385,4.834747 0.73095,0.645729 1.46874,1.256025 2.41175,1.474355 0.46295,0.108149 0.91848,0.07947 1.37692,0.08771 1.58824,0.02569 3.17932,0.02904 4.76843,0.03944 4.13665,-0.0048 8.27204,-0.01243 12.40955,-0.01243 5.63016,0 11.26088,0.0084 16.89101,0.01243 1.71007,-0.01243 3.41873,-0.04577 5.12789,-0.03023 1.22819,0.01076 2.27463,-0.454549 3.17704,-1.386545 0.0739,-0.07409 0.16737,-0.121988 0.25218,-0.181655 1.04951,-1.417078 1.32746,-3.067496 1.28415,-4.886223 -0.0659,-2.716749 -0.0341,-5.438024 -0.0118,-8.155793 0.0127,-1.642626 -0.38023,-3.118189 -1.1798,-4.474495 -0.75438,-1.278044 -1.49169,-2.569465 -2.22625,-3.862962 -0.39528,-0.697218 -0.33915,-0.866774 0.28988,-1.271502 0.18587,-0.119509 0.32193,-0.105867 0.50148,-0.01245 0.52612,0.274959 1.0559,0.225729 1.58562,-0.0062 0.47106,-0.204944 0.94463,-0.400604 1.41749,-0.602465 1.22368,-0.523149 1.66144,-1.380516 1.44936,-2.833635 -0.1334,-0.915539 -0.50927,-1.295033 -1.31602,-1.229126 -0.90421,0.07316 -1.80954,0.176735 -2.70744,0.320903 -1.0116,0.162721 -1.70829,1.133348 -1.6262,2.282663 0.0281,0.37692 -0.05,0.610292 -0.33334,0.672075 -0.32759,0.07409 -0.27711,-0.320978 -0.34207,-0.517677 -0.89429,-2.735285 -1.76567,-5.483065 -2.65813,-8.219391 -1.03238,-3.165759 -3.08909,-4.796356 -6.05261,-4.798419 -3.76442,-0.0031 -7.52914,-0.0062 -11.29352,-0.0062 z m 13.60093,1.743781 c 1.14787,-10e-4 1.9308,0.632225 2.33058,1.810385 0.95474,2.817687 1.87013,5.651693 2.79149,8.482771 0.19582,0.601426 0.0118,0.908968 -0.55074,0.97179 -0.18047,0.02061 -0.36357,0.0092 -0.54498,0.0092 h -17.56062 -17.50263 c -0.20125,0 -0.40532,0.01581 -0.60295,-0.01814 -0.45753,-0.07719 -0.69478,-0.326544 -0.50438,-0.89914 0.95652,-2.878431 1.89336,-5.764953 2.86975,-8.634132 0.39075,-1.14829 1.18935,-1.715506 2.26682,-1.716529 9.00248,-0.0047 18.00427,-9.48e-4 27.00766,-0.0062 z m -31.03111,19.290567 c 0.65605,0 1.20668,0.167791 1.65517,0.505588 0.4485,0.336759 0.80415,0.79952 1.06675,1.386547 0.26261,0.58701 0.45021,1.27485 0.55945,2.061642 0.10928,0.785787 0.17255,1.625795 0.19423,2.524855 0,0.07518 -0.002,0.163482 -0.0149,0.263382 -0.009,0.09889 -0.0173,0.199813 -0.0173,0.299713 v 0.336045 c -0.26261,0.199784 -0.66774,0.356987 -1.21459,0.46924 -0.54777,0.111292 -1.07047,0.169541 -1.57402,0.169541 -1.31301,0 -2.25763,-0.324977 -2.83788,-0.974826 -0.57935,-0.649834 -0.86963,-1.650066 -0.86963,-2.997117 2e-5,-0.450051 0.0588,-0.908765 0.17974,-1.383523 0.12002,-0.474759 0.3011,-0.911277 0.54206,-1.310858 0.24094,-0.398559 0.55644,-0.724576 0.95079,-0.974828 0.39346,-0.249229 0.85461,-0.375401 1.37982,-0.375401 z m 34.88354,0 c 0.52521,0 0.98348,0.126178 1.37692,0.375401 0.39435,0.251292 0.71272,0.575246 0.95368,0.974828 0.24183,0.398541 0.42199,0.833061 0.54207,1.307835 0.12001,0.474758 0.17971,0.936495 0.17971,1.386546 0,1.347051 -0.28849,2.347283 -0.86962,2.997117 -0.57935,0.649832 -1.52686,0.971804 -2.84078,0.971804 -0.50263,0 -1.02623,-0.05425 -1.574,-0.166519 -0.54598,-0.112224 -0.94909,-0.269456 -1.2117,-0.46924 v -0.336045 c 0,-0.09983 -0.006,-0.199815 -0.0173,-0.299713 -0.009,-0.09983 -0.0174,-0.188205 -0.0174,-0.263382 0.0217,-0.89906 0.0878,-1.741068 0.19712,-2.527877 0.1101,-0.786809 0.29395,-1.47161 0.55655,-2.05862 0.26262,-0.585989 0.62115,-1.049788 1.06965,-1.386547 0.44852,-0.337797 0.99824,-0.505588 1.65517,-0.505588 z" />
    <path
       d="m 165.68071,92.136749 c 1.71005,-0.01386 3.41924,-0.04637 5.12841,-0.03083 1.22818,0.0096 2.27317,-0.45621 3.17557,-1.387202 0.073,-0.07409 0.16877,-0.121522 0.25267,-0.182289 0.006,1.473722 0.0425,2.948472 0.009,4.42015 -0.0289,1.307913 -0.70301,2.027781 -1.85177,2.04015 -1.61441,0.01637 -3.22883,0.01553 -4.84325,0 -1.18938,-0.01076 -1.85265,-0.798142 -1.86348,-2.165794 -0.007,-0.898045 -0.006,-1.796078 -0.008,-2.6941"
       style="fill:#ffdd00;fill-opacity:1;fill-rule:nonzero;stroke:none;stroke-width:0.964031"
       id="path177-6-0-2" />
    <path
       d="m 127.82168,90.534706 c 0.73094,0.645716 1.47002,1.255392 2.41213,1.473734 0.46385,0.107073 0.91956,0.08031 1.37889,0.08843 1.58826,0.02474 3.17741,0.02772 4.76566,0.03908 -10e-4,0.921719 0.002,1.843437 -0.007,2.76414 -0.0162,1.284228 -0.68312,2.079286 -1.80303,2.093698 -1.63426,0.02366 -3.26943,0.0196 -4.90371,0.0012 -1.14334,-0.01076 -1.82287,-0.739442 -1.85085,-2.041189 -0.0316,-1.472694 0.002,-2.946416 0.008,-4.420138"
       style="fill:#ffdd00;fill-opacity:1;fill-rule:nonzero;stroke:none;stroke-width:0.964031"
       id="path181-5-3-7" />
  </g>
</svg>
