<?xml version="1.0" encoding="UTF-8" standalone="no"?>
<!-- Created with Inkscape (http://www.inkscape.org/) -->

<svg
   width="128"
   height="128"
   viewBox="0 0 128 128"
   version="1.1"
   id="SVGRoot"
   sodipodi:docname="07_favicon.svg"
   inkscape:version="1.2.1 (9c6d41e410, 2022-07-14)"
   inkscape:export-filename="05_logomarca_icone_test.svg"
   inkscape:export-xdpi="600"
   inkscape:export-ydpi="600"
   xmlns:inkscape="http://www.inkscape.org/namespaces/inkscape"
   xmlns:sodipodi="http://sodipodi.sourceforge.net/DTD/sodipodi-0.dtd"
   xmlns="http://www.w3.org/2000/svg"
   xmlns:svg="http://www.w3.org/2000/svg">
  <sodipodi:namedview
     id="namedview41"
     pagecolor="#ffffff"
     bordercolor="#000000"
     borderopacity="0.25"
     inkscape:showpageshadow="2"
     inkscape:pageopacity="0.0"
     inkscape:pagecheckerboard="0"
     inkscape:deskcolor="#d1d1d1"
     inkscape:document-units="px"
     showgrid="false"
     inkscape:zoom="2.9790123"
     inkscape:cx="85.598841"
     inkscape:cy="35.917945"
     inkscape:window-width="1920"
     inkscape:window-height="1011"
     inkscape:window-x="0"
     inkscape:window-y="32"
     inkscape:window-maximized="1"
     inkscape:current-layer="layer1" />
  <defs
     id="defs36" />
  <g
     inkscape:label="Camada 1"
     inkscape:groupmode="layer"
     id="layer1">
    <path
       id="path145-3"
       style="fill:#303030;fill-opacity:1;fill-rule:nonzero;stroke:none;stroke-width:0.760502"
       d="m 63.128757,6.2293742 c -26.273304,0 -47.572077,22.1326628 -47.572077,49.4357798 0,27.303129 40.073853,66.298006 47.572077,66.298006 0.396137,0 0.888248,-0.11353 1.455227,-0.32361 C 74.756676,117.871 110.70083,81.52552 110.70083,55.665154 110.70083,33.010499 96.03664,13.916261 76.034348,8.0707958 71.929795,6.8714671 67.601887,6.2293742 63.128757,6.2293742 Z m 0,10.0093108 c 20.822217,0 37.703083,16.958404 37.703083,37.876765 0,2.040234 -0.16616,4.040887 -0.47531,5.993735 0.0489,0.06277 0.0947,0.129567 0.13741,0.198271 0.18793,0.300018 0.32795,0.629406 0.42126,0.986797 0.0933,0.357393 0.13966,0.702707 0.13966,1.041499 0,1.014043 -0.22418,1.767007 -0.6758,2.256194 -0.28508,0.30975 -0.68471,0.520282 -1.19843,0.633559 -4.72671,15.496316 -19.078532,26.766692 -36.051873,26.766692 -17.014809,0 -31.394583,-11.325818 -36.085666,-26.880645 -0.497588,-0.114936 -0.887578,-0.323706 -1.166887,-0.62671 -0.450227,-0.489199 -0.673552,-1.239887 -0.673552,-2.253931 -1e-6,-0.338781 0.0457,-0.686371 0.139667,-1.043773 0.09328,-0.357392 0.234008,-0.685996 0.42125,-0.986798 0.03814,-0.06113 0.07861,-0.121223 0.121644,-0.177757 -0.300192,-1.925207 -0.459546,-3.897284 -0.459546,-5.907133 0,-20.918361 16.880856,-37.876765 37.70309,-37.876765 z" />
    <path
       id="path185-5-5-67"
       style="fill:#ffdd00;fill-opacity:1;fill-rule:nonzero;stroke:none;stroke-width:0.737346"
       d="m 32.426555,43.262616 c -2.295998,0.0024 -3.887258,1.23642 -4.692331,3.630428 -0.698476,2.076919 -1.380896,4.160712 -2.081475,6.235309 -0.04207,0.124818 -0.0016,0.415138 -0.259057,0.321337 -0.185843,-0.06745 -0.272786,-0.204232 -0.254554,-0.47403 0.06101,-0.881467 -0.408991,-1.58947 -1.180403,-1.727473 -0.755981,-0.136451 -1.524326,-0.193719 -2.288723,-0.268922 -0.362564,-0.03571 -0.667307,0.134582 -0.801955,0.505943 -0.216692,0.598494 -0.259502,1.214343 0.06307,1.798113 0.389212,0.703162 2.436359,1.584932 3.122212,1.269395 0.410954,-0.189168 0.690431,-0.03128 0.90783,0.239296 0.211784,0.264359 -0.03795,0.553677 -0.171205,0.786252 -0.556117,0.964418 -1.12362,1.92033 -1.700771,2.86924 -0.60591,0.995432 -0.888106,2.088575 -0.885304,3.284028 0.0062,2.062964 0.03457,4.127525 -0.0089,6.18972 -0.02877,1.350498 0.197285,2.575881 0.979914,3.639538 0.56804,0.486096 1.143642,0.94552 1.876482,1.109876 0.359758,0.08141 0.713769,0.05983 1.070023,0.06602 1.234256,0.01934 2.470699,0.02186 3.705657,0.0296 3.214678,-0.0036 6.428346,-0.0093 9.643719,-0.0093 4.375281,0 8.751047,0.0055 13.126386,0.0093 1.32887,-0.0093 2.656737,-0.03446 3.984977,-0.02276 0.954442,0.0081 1.76766,-0.342178 2.468926,-1.043791 0.05742,-0.05577 0.130074,-0.09171 0.195989,-0.13673 0.815599,-1.066759 1.031595,-2.309182 0.997926,-3.678291 -0.05118,-2.045135 -0.0265,-4.093676 -0.0097,-6.139591 0.01099,-1.236538 -0.295487,-2.347325 -0.916821,-3.368333 -0.586264,-0.962108 -1.159234,-1.934262 -1.73007,-2.907992 -0.307176,-0.524856 -0.263553,-0.652497 0.225272,-0.95717 0.144447,-0.08996 0.24792,-0.07737 0.387464,-0.007 0.40885,0.206987 0.822807,0.167651 1.234469,-0.007 0.366067,-0.154278 0.734083,-0.301569 1.101561,-0.453527 0.950942,-0.393822 1.29114,-1.039236 1.126331,-2.133126 -0.103645,-0.689207 -0.39576,-0.974885 -1.022707,-0.925269 -0.702688,0.05508 -1.406238,0.133042 -2.104002,0.241571 -0.786133,0.122494 -1.329808,0.85317 -1.266004,1.71836 0.02187,0.283741 -0.03663,0.459421 -0.256819,0.50593 -0.254581,0.05577 -0.215352,-0.241628 -0.265818,-0.389702 -0.69498,-2.059101 -1.37214,-4.127585 -2.065705,-6.187456 -0.802268,-2.383143 -2.400581,-3.610638 -4.703594,-3.61219 -5.850806,-0.0047 -11.702085,-0.0059 -17.55288,0 z m 19.346007,1.308134 c 0.89205,-7.52e-4 1.500474,0.475943 1.811159,1.362837 0.741932,2.121119 1.453317,4.254536 2.169325,6.385725 0.152177,0.452746 0.0092,0.684259 -0.427991,0.731552 -0.140255,0.01552 -0.282546,0.007 -0.423516,0.007 H 41.254817 27.653127 c -0.156386,0 -0.314975,0.0119 -0.468556,-0.01364 -0.355552,-0.0581 -0.539938,-0.245807 -0.391966,-0.676861 0.74336,-2.166849 1.471365,-4.339787 2.230151,-6.499669 0.303659,-0.864407 0.924264,-1.291413 1.761596,-1.292182 6.995989,-0.0035 13.991528,-7.13e-4 20.98821,-0.0047 z m 2.99382,14.521714 c 0.408152,0 0.766544,0.09498 1.072272,0.282586 0.306466,0.189167 0.551631,0.433038 0.738887,0.733838 0.187946,0.300029 0.327937,0.629405 0.421245,0.986797 0.0933,0.357404 0.139652,0.702718 0.139685,1.0415 0,1.014043 -0.22418,1.767006 -0.67582,2.256203 -0.450233,0.489187 -1.184294,0.731552 -2.205368,0.731552 -0.390612,0 -0.799775,-0.04083 -1.225458,-0.125341 -0.424293,-0.08448 -0.73755,-0.202846 -0.941638,-0.353251 v -0.25296 c 0,-0.07515 -0.0046,-0.150417 -0.01345,-0.22562 -0.007,-0.07527 -0.01345,-0.141689 -0.01345,-0.198281 0.01686,-0.676802 0.06823,-1.310642 0.153194,-1.902956 0.08556,-0.592288 0.228443,-1.10781 0.432507,-1.549704 0.204072,-0.441124 0.482693,-0.790267 0.831233,-1.043775 0.348562,-0.254289 0.775745,-0.380588 1.286275,-0.380588 z m -27.111002,0.02509 c 0.509837,0 0.939996,0.128574 1.288531,0.382864 0.348539,0.253507 0.624922,0.599593 0.828987,1.041499 0.204077,0.441896 0.347627,0.959692 0.432515,1.551992 0.08482,0.59152 0.136343,1.226153 0.153182,1.902955 0,0.0566 -0.0043,0.120792 -0.01351,0.195995 -0.0081,0.07444 -0.0113,0.150406 -0.0113,0.22561 v 0.255245 c -0.204076,0.150407 -0.518901,0.266472 -0.943872,0.350974 -0.425686,0.08378 -0.831889,0.127617 -1.223206,0.127617 -1.020375,0 -1.756703,-0.244639 -2.207625,-0.733836 -0.450229,-0.489189 -0.675804,-1.239875 -0.675804,-2.253919 0,-0.338781 0.04792,-0.68637 0.141918,-1.043773 0.09326,-0.357393 0.231751,-0.685999 0.418999,-0.986799 0.18724,-0.300029 0.43467,-0.545439 0.741132,-0.733838 0.305758,-0.187616 0.661879,-0.282586 1.070023,-0.282586 z" />
    <path
       d="m 52.597196,72.767579 c 1.328932,-0.01049 2.657164,-0.0349 3.985396,-0.02321 0.95445,0.0073 1.766548,-0.343447 2.467814,-1.044287 0.05667,-0.05577 0.13114,-0.09148 0.196355,-0.137224 0.0043,1.109418 0.03308,2.219582 0.0075,3.327434 -0.02241,0.984581 -0.546326,1.526489 -1.439056,1.5358 -1.254583,0.01241 -2.509175,0.0117 -3.763775,0 -0.924299,-0.0081 -1.439748,-0.600832 -1.448165,-1.630383 -0.0054,-0.676028 -0.0046,-1.352047 -0.0062,-2.028085"
       style="fill:#ffdd00;fill-opacity:1;fill-rule:nonzero;stroke:none;stroke-width:0.737346"
       id="path177-6-0-5" />
    <path
       d="m 23.176135,71.561562 c 0.568041,0.486097 1.142393,0.945045 1.874535,1.10941 0.36046,0.08061 0.714606,0.06046 1.071561,0.06665 1.23426,0.01862 2.469222,0.02087 3.703483,0.02942 -0.0015,0.69386 0.0027,1.387717 -0.0062,2.080802 -0.01262,0.966751 -0.530872,1.565261 -1.401166,1.576119 -1.270025,0.01781 -2.540753,0.01466 -3.810779,9.04e-4 -0.888527,-0.0081 -1.416594,-0.556635 -1.438333,-1.536574 -0.02454,-1.108616 0.0027,-2.218025 0.007,-3.327425"
       style="fill:#ffdd00;fill-opacity:1;fill-rule:nonzero;stroke:none;stroke-width:0.737346"
       id="path181-5-3-3" />
    <path
       id="path185-5-5-6"
       style="fill:#ffdd00;fill-opacity:1;fill-rule:nonzero;stroke:none;stroke-width:0.737346"
       d="m 85.066165,43.460034 c -2.925409,-1.05e-4 -5.851044,0.0024 -8.776452,0.0047 -2.296005,0.0024 -3.887265,1.236419 -4.692338,3.630428 -0.698475,2.076918 -1.380886,4.16071 -2.081463,6.235307 -0.04213,0.124818 -7.86e-4,0.415138 -0.259049,0.321337 -0.18585,-0.06745 -0.272807,-0.204243 -0.254567,-0.474029 0.06109,-0.881478 -0.408979,-1.589472 -1.180416,-1.727473 -0.755933,-0.13644 -1.524309,-0.193719 -2.2887,-0.268923 -0.362587,-0.03571 -0.667306,0.134585 -0.801948,0.505943 -0.216697,0.598496 -0.259491,1.214343 0.06314,1.798114 0.38922,0.703162 2.436379,1.584932 3.122227,1.269396 0.410951,-0.189158 0.692679,-0.03128 0.910087,0.239296 0.211773,0.26437 -0.0403,0.553676 -0.173461,0.786251 -0.556119,0.964431 -1.123615,1.920329 -1.700776,2.869239 -0.605906,0.995433 -0.888119,2.088577 -0.885307,3.284029 0.0054,2.062964 0.03469,4.127527 -0.0097,6.189719 -0.02866,1.350517 0.199533,2.575884 0.982164,3.639538 0.568035,0.486097 1.141393,0.94552 1.874226,1.109877 0.359764,0.08141 0.713764,0.05983 1.070037,0.06602 1.234254,0.01934 2.470716,0.02186 3.705648,0.02969 3.214667,-0.0036 6.428376,-0.0093 9.643712,-0.0093 4.375324,0 8.751069,0.0063 13.126361,0.0093 1.32893,-0.0093 2.65677,-0.03446 3.98499,-0.02276 0.95446,0.0081 1.76767,-0.342179 2.46896,-1.043775 0.0574,-0.05577 0.13006,-0.09183 0.19596,-0.136747 0.8156,-1.066759 1.03161,-2.309174 0.99795,-3.678288 -0.0512,-2.045136 -0.0265,-4.093678 -0.01,-6.139581 0.01,-1.236548 -0.29548,-2.347334 -0.91685,-3.368345 -0.58624,-0.962096 -1.15922,-1.934261 -1.73007,-2.907989 -0.30717,-0.524858 -0.26355,-0.652498 0.22528,-0.957172 0.14444,-0.08996 0.25018,-0.0797 0.38971,-0.0094 0.40886,0.206986 0.82057,0.169926 1.23222,-0.0047 0.36606,-0.15428 0.73409,-0.30157 1.10156,-0.453528 0.95095,-0.39382 1.29114,-1.039236 1.12633,-2.133125 -0.10365,-0.689207 -0.39577,-0.974886 -1.02271,-0.925272 -0.70267,0.05508 -1.40624,0.133045 -2.10401,0.241573 -0.78613,0.122493 -1.32755,0.853169 -1.26375,1.718359 0.0219,0.283741 -0.0389,0.459421 -0.25906,0.50593 -0.25457,0.05577 -0.21533,-0.241628 -0.26582,-0.3897 -0.69498,-2.059089 -1.37214,-4.127584 -2.06569,-6.187457 -0.80228,-2.383144 -2.4006,-3.610637 -4.703607,-3.612191 -2.925409,-0.0024 -5.851055,-0.0047 -8.776431,-0.0047 z m 10.569565,1.312697 c 0.89204,-7.54e-4 1.50046,0.47593 1.81114,1.362835 0.74195,2.12112 1.45332,4.254524 2.16933,6.385726 0.15218,0.452746 0.01,0.684259 -0.42799,0.731551 -0.14025,0.01552 -0.28254,0.007 -0.42351,0.007 H 85.117966 71.516301 c -0.156394,0 -0.314987,0.0119 -0.468559,-0.01365 -0.355562,-0.0581 -0.539936,-0.245819 -0.391967,-0.676862 0.743327,-2.166846 1.471367,-4.339785 2.230144,-6.499668 0.303653,-0.864418 0.924265,-1.291412 1.761595,-1.292181 6.996013,-0.0035 13.991488,-7.14e-4 20.988216,-0.0047 z m -24.114925,14.5217 c 0.509823,0 0.937733,0.126312 1.286259,0.380601 0.348548,0.253508 0.624922,0.601868 0.829002,1.043775 0.20408,0.441894 0.349863,0.959692 0.434761,1.551979 0.0849,0.591531 0.134093,1.223878 0.150933,1.900679 0,0.0566 -0.0011,0.123068 -0.01153,0.198271 -0.0065,0.07444 -0.01347,0.150417 -0.01347,0.225621 v 0.252971 c -0.20408,0.150394 -0.518916,0.268735 -0.943884,0.353237 -0.42569,0.08378 -0.83189,0.127629 -1.22321,0.127629 -1.020358,0 -1.754453,-0.244639 -2.205375,-0.733837 -0.450222,-0.489187 -0.675807,-1.242149 -0.675807,-2.256193 2.2e-5,-0.338792 0.04568,-0.684107 0.139684,-1.041499 0.0933,-0.357393 0.233989,-0.685998 0.42124,-0.986797 0.187241,-0.300031 0.432424,-0.545452 0.738878,-0.733839 0.305776,-0.187617 0.664139,-0.282598 1.072289,-0.282598 z m 27.108735,0 c 0.40815,0 0.76428,0.09499 1.07002,0.282598 0.30647,0.189169 0.55388,0.433038 0.74113,0.733839 0.18793,0.300016 0.32794,0.627117 0.42125,0.984521 0.0933,0.357393 0.13967,0.704983 0.13967,1.043775 0,1.014044 -0.2242,1.767006 -0.67581,2.256193 -0.45022,0.489185 -1.18655,0.731562 -2.20763,0.731562 -0.39061,0 -0.79751,-0.04083 -1.22318,-0.125354 -0.42429,-0.08448 -0.73756,-0.202843 -0.94164,-0.353237 v -0.252971 c 0,-0.07515 -0.004,-0.150418 -0.0135,-0.225621 -0.006,-0.07515 -0.0136,-0.141678 -0.0136,-0.198271 0.0168,-0.676801 0.0682,-1.310654 0.15318,-1.902954 0.0855,-0.5923 0.22843,-1.10781 0.43251,-1.549704 0.20408,-0.441125 0.48271,-0.790267 0.83125,-1.043775 0.34856,-0.254289 0.77575,-0.380601 1.28627,-0.380601 z" />
    <path
       d="m 96.46059,72.96944 c 1.32891,-0.01049 2.65716,-0.03491 3.98539,-0.02321 0.95445,0.0073 1.76654,-0.343429 2.46781,-1.044269 0.0567,-0.05577 0.13116,-0.09148 0.19636,-0.137224 0.004,1.109399 0.0331,2.219573 0.006,3.327434 -0.0224,0.984581 -0.54632,1.526489 -1.43904,1.5358 -1.2546,0.01233 -2.5092,0.0117 -3.7638,0 -0.9243,-0.0081 -1.43973,-0.600832 -1.44815,-1.630383 -0.005,-0.676037 -0.004,-1.352066 -0.006,-2.028085"
       style="fill:#ffdd00;fill-opacity:1;fill-rule:nonzero;stroke:none;stroke-width:0.737346"
       id="path177-6-0-2" />
    <path
       d="m 67.03954,71.763441 c 0.568025,0.486088 1.142384,0.945045 1.874518,1.109409 0.360464,0.0806 0.714614,0.06046 1.071566,0.06657 1.234264,0.01862 2.469229,0.02087 3.703493,0.02942 -7.76e-4,0.693858 0.0011,1.387716 -0.0054,2.080809 -0.01261,0.966752 -0.530865,1.565261 -1.401174,1.576111 -1.270012,0.01781 -2.540736,0.01476 -3.810769,9.03e-4 -0.888517,-0.0081 -1.416592,-0.556643 -1.438345,-1.536582 -0.02456,-1.108625 0.0011,-2.218025 0.0065,-3.327425"
       style="fill:#ffdd00;fill-opacity:1;fill-rule:nonzero;stroke:none;stroke-width:0.737346"
       id="path181-5-3-7" />
  </g>
</svg>
